<svg xmlns="http://www.w3.org/2000/svg" width="32" height="32" viewBox="0 0 24 24" fill="none" stroke="#3b82f6" stroke-width="2" stroke-linecap="round" stroke-linejoin="round">
  <path d="M10 5.172C10 3.782 8.423 2.679 6.5 3c-2.823.47-4.113 6.006-4 7 .08.703 1.725 1.722 3.656 1 1.261-.472 1.96-1.45 2.344-2.5"/>
  <path d="M14.267 5.172c0-1.39 1.577-2.493 3.5-2.172 2.823.47 4.113 6.006 4 7-.08.703-1.725 1.722-3.656 1-1.261-.472-1.96-1.45-2.344-2.5"/>
  <path d="M8 14v.5c0 .662.336 1.48 1 2 .664.52 1.336 1 2 1s1.336-.48 2-1c.664-.52 1-1.338 1-2V14"/>
  <path d="M12 5.172C11.664 7.408 11.26 9.009 10.5 10c-.73.955-1.87 1.395-2.5 1.5"/>
  <path d="M12 5.172C12.336 7.408 12.74 9.009 13.5 10c.73.955 1.87 1.395 2.5 1.5"/>
  <circle cx="12" cy="13" r="4"/>
  <circle cx="12" cy="13" r="1" fill="#3b82f6"/>
</svg>
